<svg version="1.2" xmlns="http://www.w3.org/2000/svg" viewBox="0 0 1022 1146" width="1022" height="1146">
	<title>coqueiro-ai</title>
	<style>
		.s0 { fill: #6dbe45 } 
		.s1 { fill: #ffffff } 
		.s2 { fill: #f68e49 } 
		.s3 { fill: #4a4742 } 
	</style>
	<g id="coqueiro">
		<g id="&lt;Group&gt;">
			<path id="&lt;Path&gt;" class="s0" d="m530 341.3c0 0 205.1-326.3 468-65.7 0 0-306.7-39.2-468 65.7z"/>
			<path id="&lt;Path&gt;" class="s1" d="m537.9 329.8q-1.9 2.6-3.3 4.7 0.2 1.3 0.6 3.6c162.5-100.8 462.8-62.5 462.8-62.5q-1.8-1.8-3.6-3.6c-4.3-2.1-8.6-4.2-13.2-6.1-221.9-91.6-415.3 41.2-443.3 63.9z"/>
			<path id="&lt;Path&gt;" class="s0" d="m521.4 353c0 0-325.1 29.4-410.8 158.5 0 0 77.4-336.1 410.8-158.5z"/>
			<path id="&lt;Path&gt;" class="s0" d="m514.4 341.3c0 0-89.2-380.3-493-169 0 0 319.3-2.4 493 169z"/>
			<path id="&lt;Path&gt;" class="s0" d="m521.4 353c0 0 403.8-103.3 380.4 321.7 0 0-127.6-270.8-380.4-321.7z"/>
			<path id="&lt;Path&gt;" class="s1" d="m598.1 359.2c-51.4 1.4-76.7-6.2-76.7-6.2 252.8 50.9 380.4 321.7 380.4 321.7 1-19.2-13.4-46.9-14-64-30.4-55-102.1-219.6-289.7-251.5z"/>
			<path id="&lt;Path&gt;" class="s0" d="m514.4 341.3c0 0-84.5-275.5 214.4-314.6 0 0-167.5 111.1-214.4 314.6z"/>
			<path id="&lt;Path&gt;" class="s2" d="m514.4 341.3c0 0-260.4 347.6-260.4 784.3h157.1c0 0-76.5-195.2 103.3-784.3z"/>
			<path id="&lt;Path&gt;" class="s1" d="m514.4 341.3c0 0-7.4 9.9-19.8 28.5-189.7 479.3-133.9 755.8-133.9 755.8h50.4c0 0-76.5-195.2 103.3-784.3z"/>
			<path id="&lt;Compound Path&gt;" fill-rule="evenodd" class="s3" d="m110.6 527.9c-2.2 0-4.4-0.4-6.5-1.3-7.3-3.2-11.3-11-9.5-18.8 1.4-6 35.5-148.8 154.4-202.9 77.6-35.4 171.8-24 280.1 33.7 6.4 3.4 9.8 10.6 8.4 17.7-1.4 7.1-7.4 12.4-14.6 13.1-3.2 0.3-318.3 30.1-398.7 151.2-3.1 4.7-8.3 7.3-13.6 7.3zm233.7-210.3c-29.4 0-56.7 5.7-81.7 17.1-54.4 24.8-89 72.5-109.7 112.6 89-62.5 231.8-91.6 310.6-103.5-42.9-17.4-82.7-26.2-119.2-26.2z"/>
			<path id="&lt;Compound Path&gt;" fill-rule="evenodd" class="s3" d="m514.4 357.7c-4.2 0-8.4-1.6-11.5-4.7-167-164.7-478.3-164.3-481.4-164.3-7.5 0.1-14.2-5.1-16.1-12.5-1.8-7.3 1.6-15 8.4-18.5 134.6-70.4 250.3-84.4 343.9-41.6 133.7 61.2 171.1 214.9 172.7 221.5 1.6 7.1-1.6 14.4-8 18-2.5 1.4-5.3 2.1-8 2.1zm-426.6-198.5c31.8 2.8 72.8 7.9 118.2 17.2 79.3 16.3 184.9 48.6 271.5 112.1-21.9-46.7-63-110.4-133.7-142.7-70.4-32.1-156.3-27.5-256 13.4z"/>
			<path id="&lt;Compound Path&gt;" fill-rule="evenodd" class="s3" d="m530 357.7c-4.1 0-8.3-1.6-11.5-4.7-5.5-5.4-6.4-13.9-2.3-20.4 3.9-6.4 99.4-155.8 247.3-172.8 83.8-9.6 166.6 25.4 246.1 104.1 5 5 6.2 12.5 3.2 18.8-3.1 6.4-9.9 10-16.8 9.1-3.1-0.4-302.8-37.1-457 63.2-2.8 1.8-5.9 2.7-9 2.7zm260.4-166.7q-11.6 0-23.1 1.4c-76.5 8.8-138.9 59.5-178.1 101.1 123.6-47.1 281.6-44.2 361-38.8-52.8-42.3-106.4-63.7-159.8-63.7z"/>
			<path id="&lt;Compound Path&gt;" fill-rule="evenodd" class="s3" d="m901.8 691.1c-6.3 0-12.1-3.6-14.9-9.4-0.3-0.7-32-67.2-93.6-138.8-56.1-65.3-149.4-148.5-275.1-173.8-7.5-1.5-13-8-13.2-15.6-0.2-7.7 5-14.5 12.4-16.4 1.8-0.4 45.9-11.5 104.6-11.5q1 0 2.1 0c80.2 0.4 148.5 21.9 197.5 62.2 71.4 58.6 103.9 155.4 96.5 287.8-0.4 7.5-5.8 13.7-13.2 15.2q-1.6 0.3-3.1 0.3zm-302.8-332c79.5 31.4 154.4 86.9 219.8 163.2 28.6 33.3 50.9 65.2 66.9 90.6-4.7-90.2-33.1-157.2-84.9-199.8-60.9-50.1-143.2-57.1-201.8-54z"/>
			<path id="&lt;Compound Path&gt;" fill-rule="evenodd" class="s3" d="m514.4 357.7c-7.2 0-13.6-4.7-15.7-11.6-1.6-5.1-37.9-127.1 25-225 39.2-60.9 107.5-98.2 203-110.7 7.6-1 14.8 3.4 17.5 10.5 2.6 7.2 0 15.2-6.3 19.5-1.6 1-162.7 110.2-207.5 304.6-1.7 7.2-8 12.4-15.4 12.7q-0.3 0-0.6 0zm151.2-300.6c-51.6 16.5-89.8 43.7-114.2 81.5-27 42-32.6 90.6-31.4 129.1 38.3-98 100.7-168.8 145.6-210.6z"/>
			<path id="&lt;Compound Path&gt;" fill-rule="evenodd" class="s3" d="m411.1 1142h-157.1c-9 0-16.4-7.3-16.4-16.4 0-228.5 71.6-432.2 131.7-562.8 65.1-141.4 129.3-227.7 132-231.3 4.7-6.4 13.4-8.4 20.5-4.8 7.1 3.6 10.6 11.8 8.3 19.4-50.5 165.4-112 404.5-118.3 604.4-3.7 119.5 14.4 168.7 14.6 169.2 1.9 5 1.2 10.7-1.8 15.2-3.1 4.4-8.1 7.1-13.5 7.1zm-140.6-32.8h119c-13.5-61.1-35.4-253.1 77.5-663.6-20.6 35.5-44.5 80-68.3 131.8-57.1 124.2-124.9 316.2-128.2 531.8z"/>
		</g>
	</g>
</svg>