<svg version="1.2" xmlns="http://www.w3.org/2000/svg" viewBox="0 0 552 880" width="552" height="880">
	<title>filtro-ai</title>
	<style>
		.s0 { fill: #f9a333 } 
		.s1 { fill: #ffffff } 
		.s2 { fill: #f68e49 } 
		.s3 { fill: #4a4742 } 
		.s4 { fill: #fffefd } 
	</style>
	<g id="filtro">
		<g id="&lt;Group&gt;">
			<g id="&lt;Group&gt;">
				<path id="&lt;Path&gt;" class="s0" d="m430.7 609.1h-345.5v256.1h345.5z"/>
			</g>
			<path id="&lt;Path&gt;" class="s1" d="m470.7 797.9h-385.5v67.3h385.5z"/>
			<path id="&lt;Path&gt;" class="s1" d="m470.7 609.1h-385.5l-65.2-588.7h516z"/>
			<path id="&lt;Path&gt;" class="s0" d="m425.1 609.1h-346.5l-58.6-588.7h463.7z"/>
			<path id="&lt;Path&gt;" class="s1" d="m530.9 66.1l5.1-45.7h-516l5 45.7z"/>
			<path id="&lt;Path&gt;" class="s2" d="m85.8 805.3h384.4"/>
			<path id="&lt;Path&gt;" class="s1" d="m357.8 805.1c-3.8-40.8-38.1-72.7-79.8-72.7-41.8 0-76.1 31.9-79.9 72.7z"/>
			<path id="&lt;Path&gt;" class="s2" d="m29.3 73.9h503.5"/>
			<path id="&lt;Compound Path&gt;" fill-rule="evenodd" class="s3" d="m485.5 880h-415.1v-285.7h415.1zm-385.5-29.6h356v-226.6h-356z"/>
			<path id="&lt;Compound Path&gt;" fill-rule="evenodd" class="s3" d="m484 623.9h-412l-68.6-618.3h549.1zm-385.5-29.5h359l62-559.1h-483z"/>
			<path id="&lt;Path&gt;" class="s3" d="m470.2 820.1h-384.4v-29.6h384.4z"/>
			<path id="&lt;Compound Path&gt;" fill-rule="evenodd" class="s3" d="m374 819.9h-192.1l1.5-16.1c4.5-49.2 45.2-86.2 94.6-86.2 49.3 0 90 37 94.5 86.2zm-157.6-29.6h123.2c-9.1-25.5-33.3-43.2-61.6-43.2-28.4 0-52.5 17.7-61.6 43.2z"/>
			<path id="&lt;Path&gt;" class="s3" d="m532.8 88.7h-503.5v-29.6h503.5z"/>
			<path id="&lt;Path&gt;" class="s1" d="m351.3 335.4c0-40.3-32.6-72.9-72.9-72.9-40.2 0-72.9 32.6-72.9 72.9 0 40.2 32.7 72.9 72.9 72.9 40.3 0 72.9-32.7 72.9-72.9z"/>
			<g id="&lt;Group&gt;">
				<path id="&lt;Path&gt;" class="s4" d="m278.1 244.6c-3.4 0-6.2-2.8-6.2-6.2v-30.3c0-3.4 2.8-6.1 6.2-6.1 3.4 0 6.1 2.7 6.1 6.1v30.3c0 3.4-2.7 6.2-6.1 6.2z"/>
				<path id="&lt;Path&gt;" class="s4" d="m278.1 468.5c-3.4 0-6.2-2.8-6.2-6.2v-30.2c0-3.4 2.8-6.2 6.2-6.2 3.4 0 6.1 2.8 6.1 6.2v30.2c0 3.4-2.7 6.2-6.1 6.2z"/>
			</g>
			<g id="&lt;Group&gt;">
				<path id="&lt;Path&gt;" class="s4" d="m229.7 257.5c-2.2 0-4.2-1.1-5.4-3.1l-15.1-26.2c-1.7-2.9-0.7-6.7 2.3-8.4 2.9-1.7 6.7-0.7 8.4 2.3l15.1 26.2c1.7 2.9 0.7 6.7-2.3 8.4-0.9 0.6-2 0.8-3 0.8z"/>
				<path id="&lt;Path&gt;" class="s4" d="m341.7 451.5c-2.2 0-4.2-1.1-5.4-3.1l-15.1-26.2c-1.7-3-0.7-6.7 2.2-8.4 3-1.7 6.7-0.7 8.4 2.2l15.2 26.2c1.7 3 0.7 6.7-2.3 8.4-0.9 0.6-2 0.9-3 0.9z"/>
			</g>
			<g id="&lt;Group&gt;">
				<path id="&lt;Path&gt;" class="s4" d="m194.2 293c-1 0-2.1-0.3-3.1-0.9l-26.2-15.1c-2.9-1.7-3.9-5.4-2.2-8.4 1.7-2.9 5.4-4 8.4-2.3l26.2 15.2c2.9 1.7 4 5.4 2.3 8.4-1.2 2-3.3 3.1-5.4 3.1z"/>
				<path id="&lt;Path&gt;" class="s4" d="m388.2 404.9c-1.1 0-2.1-0.2-3.1-0.8l-26.2-15.1c-3-1.7-4-5.5-2.3-8.4 1.7-3 5.5-4 8.4-2.3l26.2 15.2c3 1.7 4 5.4 2.3 8.4-1.1 1.9-3.2 3-5.3 3z"/>
			</g>
			<g id="&lt;Group&gt;">
				<path id="&lt;Path&gt;" class="s4" d="m181.2 341.4h-30.2c-3.4 0-6.2-2.8-6.2-6.2 0-3.4 2.8-6.1 6.2-6.1h30.2c3.5 0 6.2 2.7 6.2 6.1 0 3.4-2.7 6.2-6.2 6.2z"/>
				<path id="&lt;Path&gt;" class="s4" d="m405.2 341.4h-30.3c-3.4 0-6.1-2.8-6.1-6.2 0-3.4 2.7-6.1 6.1-6.1h30.3c3.4 0 6.2 2.7 6.2 6.1 0 3.4-2.8 6.2-6.2 6.2z"/>
			</g>
			<g id="&lt;Group&gt;">
				<path id="&lt;Path&gt;" class="s4" d="m168 404.9c-2.1 0-4.2-1.1-5.3-3-1.7-3-0.7-6.7 2.2-8.4l26.2-15.2c3-1.7 6.8-0.7 8.5 2.3 1.7 2.9 0.6 6.7-2.3 8.4l-26.2 15.1c-1 0.6-2 0.8-3.1 0.8z"/>
				<path id="&lt;Path&gt;" class="s4" d="m362 293c-2.2 0-4.2-1.1-5.4-3.1-1.7-3-0.7-6.7 2.3-8.4l26.2-15.2c2.9-1.7 6.7-0.6 8.4 2.3 1.7 3 0.7 6.7-2.3 8.4l-26.2 15.1c-0.9 0.6-2 0.9-3 0.9z"/>
			</g>
			<g id="&lt;Group&gt;">
				<path id="&lt;Path&gt;" class="s4" d="m214.5 451.5c-1 0-2.1-0.3-3-0.9-3-1.7-4-5.4-2.3-8.4l15.1-26.2c1.7-2.9 5.5-3.9 8.4-2.2 3 1.7 4 5.4 2.3 8.4l-15.1 26.2c-1.2 2-3.2 3.1-5.4 3.1z"/>
				<path id="&lt;Path&gt;" class="s4" d="m326.5 257.5c-1 0-2.1-0.2-3.1-0.8-2.9-1.7-3.9-5.5-2.2-8.4l15.1-26.2c1.7-3 5.5-4 8.4-2.3 3 1.7 4 5.5 2.3 8.4l-15.2 26.2c-1.1 2-3.2 3.1-5.3 3.1z"/>
			</g>
		</g>
	</g>
</svg>