<svg version="1.2" xmlns="http://www.w3.org/2000/svg" viewBox="0 0 1456 580" width="1456" height="580">
	<title>lett-titulo-ai</title>
	<style>
		.s0 { fill: #000000 } 
	</style>
	<g id="lettering">
		<g id="&lt;Group&gt;">
			<path id="&lt;Compound Path&gt;" class="s0" d="m45.4 553.7q-12.9-17.5-22.8-38.8-9.9-21.3-15.9-43.3-13-97.3-0.8-188.9 12.1-91.6 39.5-180.5 4.6-9.9 19.8-9.9 15.2 0 30.4 6.9 15.2 6.8 25.1 18.2 9.8 11.4 4.5 23.6-8.4 18.2-16.7 49-8.4 30.8-16 68-7.6 37.3-13.3 77.9-5.7 40.7-8.3 77.9-2.7 37.3-1.2 67.3 1.5 30 9.2 47.5 35.7-47.9 65.3-99.2 29.7-51.3 55.9-104.1 26.2-52.8 49.8-106.8 23.5-54 46.3-106.4 11.4-26.6 22.4-56.2 11-29.7 29.3-51 7.6-6.8 11.8-4.5 4.1 2.3 5.7 8.7 1.5 6.5 1.5 13.7 0 7.2 0 11-5.3 35-9.1 69.2-3.8 34.2-16 66.1-19.8 50.2-40.6 99.6-21 49.4-44.9 97.2-23.9 47.9-51.7 93.1-27.7 45.3-60.4 86.3-25.8 32.7-51.3 34.6-25.5 1.9-47.5-26.2z"/>
			<path id="&lt;Compound Path&gt;" fill-rule="evenodd" class="s0" d="m744.6 372q-5.3 10.7-12.5 23.2-7.3 12.5-11.4 25.5-4.2 12.9-3.5 25.4 0.8 12.6 12.2 22.4 4.6 6.1-0.8 9.2-5.3 3-14.4 3.4-9.1 0.4-18.2-1.9-9.2-2.3-13-6.9-12.1-16.7-14.8-33.8-2.7-17.1 1.2-34.6 3.8-17.4 12.1-34.2 8.4-16.7 19-31.9-28.9 13-53.2 38.4-24.3 25.5-46 56.6-21.6 31.2-42.1 64.6-20.6 33.5-41.1 62.3-6.1 6.9-14.4 3.8-8.4-3-10.7-11.7-2.2-8.8 1.6-18.7 5.3-18.2 10.2-41 3.9-17.8 7.5-37-0.9 1-1.8 2-13.7 15.3-29.2 32-15.6 16.7-32.7 30.7-17.1 14.1-35.7 24.4-18.7 10.2-38.4 13.3-35 2.2-57.4-14.5-22.4-16.7-22.4-54.7-1.5-28.9 6.1-60 7.6-31.2 22.8-57.4 15.2-26.2 38.3-43 23.2-16.7 54.4-17.4 15.9 3.8 24.7 15.9 8.7 12.2 4.9 29.7-3 16.7-8.7 28.5-5.7 11.8-19.4 24.7-6.8 6.1-19 15.9-12.2 9.9-23.6 20.5-11.4 10.7-19.7 21.7-8.4 11-8.4 18.6-2.3 19.8 6.1 25.5 8.4 5.7 21.7 4.5 13.3-1.1 26.9-7.2 13.7-6.1 22.1-10.6 9.9-6.9 22-17.1 12.2-10.3 24.3-21.7 12.2-11.4 23.6-22 11.4-10.7 19-17.5 4-4 7.5-7.7 1.7-9.1 3.5-18.1 5-25.1 10.3-47.9 1.5-6.1 7.2-9.5 5.7-3.4 12.5-3.8 6.9-0.4 12.2 2.6 5.3 3.1 6.8 9.2 3.1 15.2-1.9 36.4-4.9 21.3-11 41.8 13.7-16.7 30-39.1 16.4-22.4 35.8-41.8 19.3-19.4 41-31.9 21.7-12.6 45.2-10.3 12.2 3.8 19.4 12.6 7.2 8.7 11 19.7 3.8 11 4.2 21.7 0.4 10.6-1.9 18.2zm-377.7 28.9q16.7-12.2 30-24.7 13.3-12.5 19.4-30.8-20.5 7.6-32.3 19.8-11.8 12.2-17.1 35.7z"/>
			<g id="&lt;Group&gt;">
				<path id="&lt;Path&gt;" class="s0" d="m852.5 250.1q7.6-6.9 15.2-14.5 7.6-7.6 16-13.7 11.4-9.8 19.4-3.4 7.9 6.5 16.7 17.5 8.7 11 19.4 20.9 10.6 9.9 28.1 6.1 38-7.6 50.1-49.4 1.6-6.1-0.3-9.5-1.9-3.4-8 0.4-7.6 5.3-15.6 10.2-8 5-15.6 11-10.6 6.9-17.8 5.7-7.3-1.1-13.7-6.4-6.5-5.3-12.9-13.3-6.5-8-15.6-15.6-9.9-7.6-20.2-7.2-10.2 0.4-20.1 6.4-3.8 2.3-11.8 9.5-8 7.3-14.8 16-6.8 8.7-10.3 17.1-3.4 8.4 2.7 13.7 5.3 2.3 9.1-1.5z"/>
				<path id="&lt;Compound Path&gt;" fill-rule="evenodd" class="s0" d="m1313.1 386.1q-1.6 4.2-7.2 9.9-5.8 5.7-13 11-7.2 5.3-11 7.6-18.2 8.3-36.1 12.9-17.9 4.6-33.8 12.9-6.9 12.2-19 32.3-12.2 20.2-27 39.2-14.8 19-31.1 32.6-16.4 13.7-31.6 13.7-21.3 0-36.5-12.1-11.4-7.6-17.1-23.6-5.7-16-6.8-34.6c-0.2-2.4-0.2-4.8-0.3-7.2-3.6 4.8-7.2 9.5-11.1 14.1q-17.1 20.1-38 35.7-20.9 15.6-45.2 24.7-15.2 5.3-27.4 3.4-12.1-1.9-22-8.7-9.9-6.9-16-17.5-6.1-10.7-8.3-22.8-6.9 5.3-15.2 11.8-8.4 6.4-18.3 11.4-9.9 4.9-20.9 7.6-11 2.6-23.2 0.3-9.1-1.5-16.7-6.4-7.6-5-14.4-11.8-6.9-6.8-8.4-19.8-1.5-12.9-0.7-20.5 3.8-19.7 10.6-41.8 6.8-22 16.7-43.3 16.7-35 42.6-62.3 25.8-27.4 62.3-35 12.2-3 25.5-1.1 13.3 1.9 23.1 8.7 9.9 6.9 15.2 17.1 5.3 10.3 2.3 22.4-1.5 4.6-3.4 9.2-1.9 4.5-4.6 7.6-2.6 3-4.9 3.4-2.3 0.4-4.6-4.2-0.7-2.3-1.9-6.5-1.1-4.1-3.4-8.3-2.3-4.2-6.4-7.6-4.2-3.4-11.1-3.4-14.4 0-32.6 17.8-18.3 17.9-35 41.8-16.7 24-28.9 47.9-12.1 23.9-15.2 36.1-4.5 19.8 0.8 20.9 5.3 1.1 16.7-8.4 11.4-9.5 25.8-26.2 14.5-16.7 27.4-33 12.9-16.4 22.4-28.9 9.5-12.6 10.3-13.3 9.9-7.6 19.7-6.9 9.9 0.8 17.1 7.3 7.3 6.4 9.9 15.9 2.7 9.5-1.9 19.4-5.3 12.2-14 28.9-8.8 16.7-11.1 29.6-2.2 19.8 4.6 25.9 6.8 6 25.1-0.8 14.4-6.1 30.4-21.7 15.9-15.5 31.5-33 15.6-17.5 29.3-33.5 1.3-1.5 2.7-3 0.7-3.5 1.8-4.9 1.6-1.9 3.1-2.7 1.4-0.7 3.2-1.5 2-2 3.8-3.9 2.2-8 4.4-16.6 2.3-9.2 6.8-16.8 12.9-22.8 33.1-42.1 20.1-19.4 46.7-22.5 16.7-3 30.8 1.6 14 4.5 24.7 17.4 9.1 9.9 12.9 21.7 3.8 11.8 4.6 22.8 0.7 11-0.8 20.1-1.5 9.2-2.3 13.7 9.1-0.7 19.8-4.5 10.6-3.8 19.8-6.1 10.6-3 22.4-7.2 11.7-4.2 22.4-6.5 7.6 0 6.1 4.2zm-142.1 66.5q-15.3 1.5-32.7 1.5-17.5 0-32.7-3-2.3 6.8-3 17.8-0.8 11 0 22.8 0.7 11.8 3 22.4 2.3 10.7 6.1 16.8 7.6-1.5 17.1-11.1 9.5-9.5 18.2-21.6 8.7-12.2 15.2-24.7 6.5-12.6 8.8-20.9zm18.6-75.3q-0.4-17.4-11-28.1-5.4-6.1-13.7-6.8-8.4-0.8-16 3-15.2 9.1-24.3 21.3-9.1 12.2-17.5 25.1 0 3.8 1.5 5.3 7.6 6.8 6.9 15.2 0 3.8 8.7 4.6 8.7 0.7 19.8 0.3 11-0.3 21.3-1.9 10.2-1.5 14-1.5 1.5 0 3.1-1.5 1.5-1.5 1.5-3 6-14.5 5.7-32z"/>
			</g>
		</g>
	</g>
	<g id="til">
	</g>
	<g id="exclamacao">
		<path id="&lt;Compound Path&gt;" class="s0" d="m1319.2 530.9q-11.4 1.5-19.4-8-8-9.5-9.9-22.1-1.9-12.5 2.7-25 4.5-12.6 18.2-17.9 16.7-5.3 26.2 4.6 9.5 9.8 11 24.7 1.5 14.8-5.7 28.5-7.2 13.6-23.1 15.2zm97.2-445.4q5.3-5.3 13.3-5.3 8 0 14.5 3 6.4 3.1 10.2 9.1 3.8 6.1 1.5 13.7-3 11.4-9.8 33.1-6.9 21.6-16.4 49-9.5 27.4-20.5 58.1-11 30.8-22.4 60.8-11.4 30.1-22.4 57-11.1 27-19.4 46-3.1 6.9-8.4 5.3-5.3-1.5-7.6-7.6-4.5-25.8-3.8-49.4 0.8-23.5 4.6-47.1 3.8-21.2 12.5-54.7 8.8-33.4 20.5-67.6 11.8-34.2 25.9-63.1 14-28.9 27.7-40.3z"/>
	</g>
</svg>