<svg version="1.2" xmlns="http://www.w3.org/2000/svg" viewBox="0 0 1400 858" width="1400" height="858">
	<title>praia-footer-ai</title>
	<defs>
		<linearGradient id="g1" x2="1" gradientUnits="userSpaceOnUse" gradientTransform="matrix(0,-710.331,2642.222,0,751.009,576.288)">
			<stop offset=".154" stop-color="#99d5e2"/>
			<stop offset=".768" stop-color="#79c8d7"/>
		</linearGradient>
		<linearGradient id="g2" x2="1" gradientUnits="userSpaceOnUse" gradientTransform="matrix(0,-330.862,1503.779,0,733.886,658.545)">
			<stop offset=".154" stop-color="#65c4ce"/>
			<stop offset=".768" stop-color="#3ab7cd"/>
		</linearGradient>
		<linearGradient id="g3" x2="1" gradientUnits="userSpaceOnUse" gradientTransform="matrix(0,-208.77,922.453,0,735.855,710.931)">
			<stop offset=".154" stop-color="#3ec0c5"/>
			<stop offset=".768" stop-color="#25b1c2"/>
		</linearGradient>
		<linearGradient id="g4" x2="1" gradientUnits="userSpaceOnUse" gradientTransform="matrix(0,-141.45,1068.522,0,712.267,838.718)">
			<stop offset=".154" stop-color="#00b8c4"/>
			<stop offset=".768" stop-color="#00a9b2"/>
		</linearGradient>
	</defs>
	<style>
		.s0 { fill: #f8f3eb } 
		.s1 { fill: url(#g1) } 
		.s2 { fill: url(#g2) } 
		.s3 { opacity: .3;fill: #eae5da } 
		.s4 { fill: url(#g3) } 
		.s5 { opacity: .2;fill: #eae5da } 
		.s6 { opacity: .5;fill: #eae5da } 
		.s7 { fill: url(#g4) } 
		.s8 { fill: none;stroke: #eae5da;stroke-miterlimit:10 } 
		.s9 { fill: #eae5da } 
		.s10 { opacity: .2;fill: #4b7cab } 
		.s11 { fill: #f7ede4 } 
	</style>
	<g id="mar">
		<g id="onda">
			<path id="&lt;Path&gt;" class="s0" d="m167.4 316.7c94.5-44 145.5-27.5 207 0 61.5 27.5 90 33 126 26.6 36-6.4 40.5-17 109.5 11.8 69 28.8 168 63.2 295.5 13.7 127.5-49.5 186-19.2 312 23.4 126 42.7 182.6-10.8 182.6-10.8v-203.4c0 0-42.5 66.7-120.5 38.7-78-28-86.8-78.9-124.3-74.8-37.5 4.1-53.2 14.1-74.2-18.9-21-33-62.1-103.6-132.6-87.2-70.5 16.5-74.4 54.2-107.4 45.9-33-8.3-48.8 13.6-81.8 46.5-33 33-117.7 58.9-201.7 1.4-84-57.5-82.4-78-130.4-65.6-48 12.4-46 38.5-85.6-7.7-23.3-27.2-85.9-63-138.4-14.9-52.5 48.1-46.3 94.4-85.3 94-39-0.4-86.7-2.9-116.7 42.5v183.2c65.5 9.6 72.3-0.6 166.3-44.4z"/>
		</g>
		<g id="mar">
			<path id="&lt;Path&gt;" class="s1" d="m167.4 344.1c94.5-44 145.5-27.5 207 0 61.5 27.5 90 33 126 26.6 36-6.4 40.5-17 109.5 11.8 69 28.9 168 63.2 295.5 13.7 127.5-49.5 186-19.2 312 23.4 126 42.6 182.6-10.9 182.6-10.9v-203.4c0 0-46.1 43.7-124.1 15.6-78-28-87-36.3-124.5-32.1-37.5 4.2-49.5-5.5-70.5-38.5-21-33-60-79.7-130.5-63.2-70.5 16.5-76.5 30.2-109.5 22-33-8.2-49.5-1.4-82.5 31.6-33 33-117 73.8-201 16.3-84-57.5-87-57.5-135-45.2-48 12.3-52.5-5.5-81-28.2-28.5-22.7-78-41.9-130.5 6.2-52.5 48.1-64.5 55.6-103.5 55.3-39-0.3-76.5 14.8-106.5 60.1v183.3c65.7 9.6 72.5-0.7 166.5-44.4z"/>
			<path id="&lt;Path&gt;" class="s2" d="m0 607.9v-38c52-58.6 132-89.8 191-81.5 59 8.3 61 17.4 118 13.7 57-3.7 71 53.1 130 40.3 59-12.8 40-4.6 143 24.7 103 29.3 184 7.3 247-19.2 63-26.6 128 8.2 170 33.9 42 25.7 98 51.3 145 38.5 47-12.8 48-11 123 2.7 75 13.8 133-45.7 133-45.7v-168.5c0 0-56.6 53.5-182.6 10.9-126-42.6-184.5-72.8-312-23.4-127.5 49.4-226.5 15.1-295.5-13.7-69-28.9-73.5-18.2-109.5-11.8-36 6.4-64.5 0.9-126-26.6-61.5-27.5-112.5-44-207 0-94.5 44-100.9 54.1-167.4 44.2v219.5c0 0 1 0 0 0z"/>
			<path id="&lt;Path&gt;" class="s3" d="m167.4 399.2c94.5-44 145.5-27.5 207 0 61.5 27.5 90 33 126 26.6 36-6.4 40.5-17 109.5 11.8 69 28.8 168 63.2 295.5 13.7 127.5-49.5 186-19.2 312 23.4 126 42.7 182.6-10.8 182.6-10.8v-55.1c0 0-56.6 53.5-182.6 10.9-126-42.6-184.5-72.8-312-23.4-127.5 49.4-226.5 15.1-295.5-13.7-69-28.9-73.5-18.2-109.5-11.8-36 6.4-64.5 0.9-126-26.6-61.5-27.5-112.5-44-207 0-94.5 44-100.9 54.1-167.4 44.2v55.1c66.6 9.9 72.9-0.3 167.4-44.3z"/>
			<path id="&lt;Path&gt;" class="s4" d="m110 677.1c77-20.2 116 29.3 195 22.9 79-6.4 104 0.9 149 19.3 45 18.3 93 43.1 189 44.9 96 1.8 141-63.2 219-64.1 78-0.9 73 35.7 137 28.4 64-7.3 99 48.5 209 70.5 110 22 192-34.8 192-34.8v-186.9c0 0-58 59.5-133 45.8-75-13.7-76-15.6-123-2.7-47 12.8-103-12.8-145-38.5-42-25.7-107-60.5-170-33.9-63 26.6-144 48.5-247 19.2-103-29.3-84-37.6-143-24.7-59 12.8-73-44-130-40.3-57 3.7-59-5.5-118-13.7-59-8.2-139 22.9-191 81.5v184.6c12.7-15.2 46.3-60.8 110-77.5z"/>
			<path id="&lt;Path&gt;" class="s5" d="m0.5 754v-94.5c52-58.6 132-89.8 191-81.5 59 8.3 61 17.4 118 13.7 57-3.7 71 53.1 130 40.3 59-12.8 40-4.6 143 24.7 103 29.3 184 7.3 247-19.2 63-26.5 128 8.2 170 33.9 42 25.6 98 51.3 145 38.5 47-12.8 48-11 123 2.7 71.1 13.1 126.9-39.8 132.5-45.3v-90c0 0-58 59.5-133 45.8-75-13.7-76-15.6-123-2.7-47 12.8-103-12.8-145-38.5-42-25.7-107-60.5-170-33.9-63 26.6-144 48.5-247 19.2-103-29.3-84-37.6-143-24.7-59 12.8-73-44-130-40.3-57 3.7-59-5.5-118-13.7-59-8.2-139 22.9-191 81.5v184.6c0.1-0.2 0.3-0.4 0.5-0.6z"/>
			<path id="&lt;Path&gt;" class="s6" d="m1400 749.1c0 0-68 67.3-178 45.3-110-22-159-88.4-223-81.1-64 7.3-59-42-137-41-78 1-123 86.4-219 84.6-96-1.8-144-51.3-189-69.6-45-18.3-69 1.8-148 8.2-79 6.4-120-62.3-197-42.1-77 20.2-109 91.1-109 91.1v98h1400z"/>
			<path id="&lt;Path&gt;" class="s7" d="m1400 764.2c0 0-82 56.8-192 34.8-110-22-145-77.9-209-70.5-64 7.4-59-29.3-137-28.4-78 0.9-123 66-219 64.1-96-1.9-144-26.6-189-44.9-45-18.3-70-25.7-149-19.3-79 6.4-118-43-195-22.9-77 20.1-110 82.5-110 82.5v98h1400z"/>
			<g id="&lt;Group&gt;">
				<path id="&lt;Path&gt;" class="s8" d="m110 677.1c-77 20.2-110 82.4-110 82.4v8.4c38-30.1 98-38.1 171-3 97 46.6 92 33.1 172 0 80-33.1 166-11.8 274 31.3 108 43.1 202 1.8 339-38.5 58.5-17.2 102.4-12 143.1 1.6-36.7-18.8-63.7-35.1-100.1-30.9-64 7.3-59-29.3-137-28.4-78 0.9-123 66-219 64.1-96-1.9-144-26.6-189-44.9-45-18.3-70-25.7-149-19.3-79 6.6-118-42.9-195-22.8z"/>
				<path id="&lt;Path&gt;" class="s8" d="m1208 799c-14.2-2.8-27.1-6.2-39-10 31 14.3 64 28.8 104 37.5 123 26.5 127-15.6 127-15.6v-46.7c0 0-82 56.8-192 34.8z"/>
			</g>
			<path id="&lt;Path&gt;" class="s9" d="m0 787.1c14.2-12.4 32.2-21.1 52.4-25.2 35.8-7.3 76.4-0.4 120.4 20.8 48.9 23.4 72.8 33.6 96.6 32.8 24.3-0.9 47.5-13.1 93.6-37.5l6.3-3.3c80-42.3 141.7-8.9 213.1 29.7 14.9 8.1 30.3 16.4 46.4 24.3 43.3 21.3 75.4 28.1 110.8 23.2 34.6-4.7 72.1-20.8 124.1-43.1 6.6-2.8 13.4-5.7 20.5-8.8 64-27.2 105.1-36.7 146.5-33.7 44.9 3.3 92.7 21.7 160.1 52.3 71.9 32.7 128 37.6 162.4 35.9 21.3-1 37.1-4.6 46.8-7.6v-1c-9.6 3-25.5 6.7-47 7.7-62 3-122.2-17.8-161.8-35.8-67.5-30.7-115.4-49.1-160.4-52.3-4.9-0.3-9.7-0.5-14.6-0.5-37 0-75.8 10.2-132.4 34.3-7.1 3-13.9 5.9-20.5 8.8-51.9 22.2-89.4 38.3-123.8 43-35.2 4.8-67.1-1.9-110.2-23.1-16.1-7.9-31.5-16.2-46.4-24.3-48-26-91.6-49.6-139.3-49.6-23.6 0-48.2 5.8-74.8 19.8l-6.3 3.3c-91.1 48.2-94.6 50.1-189.2 4.7-44.3-21.2-85-28.2-121.1-20.9-20 4.1-37.9 12.7-52.1 24.9z"/>
			<g id="&lt;Group&gt;">
				<path id="&lt;Path&gt;" class="s9" d="m1400 662.5c-11.1 6.7-24.8 13.7-40.9 19.8-28.1 10.5-58 16.1-88.8 16.4-38.5 0.4-78.6-7.3-119.1-22.9-46.7-18-84-36.5-116.9-52.9-46.8-23.2-83.7-41.6-125.5-47.9-10.3-1.6-20.7-2.4-31.4-2.4-35.7 0-74.2 9-120.6 27.7-89.1 36.1-135.9 49.3-172.7 48.6-37.5-0.6-64.7-16.6-105.9-40.9-10.9-6.4-20.7-12.4-29.3-17.7-28.9-17.6-48-29.3-69-33.4-20.6-4-43.6-1-82.1 10.7-18.5 5.6-33.3 11.1-46.4 15.8-47.3 17.3-66.9 24.4-130.2-8.5-41.9-21.8-80.9-8.1-106.3 7.2q-8.1 4.9-15 10.2v1.3c4.7-3.6 9.9-7.2 15.5-10.6 16-9.7 32.1-15.6 47.9-17.6 19.7-2.6 39 1 57.3 10.5 63.7 33.1 83.4 25.9 131.1 8.5 13.1-4.8 27.9-10.2 46.4-15.8 38.3-11.7 61.2-14.7 81.6-10.7 20.8 4.1 39.9 15.7 68.7 33.3 8.6 5.3 18.4 11.2 29.3 17.7 83.6 49.2 106.1 62.5 279.5-7.7 127.4-51.5 183.6-23.7 276.6 22.5 33 16.4 70.3 34.9 117 52.9 40.7 15.7 80.9 23.4 119.5 23 30.9-0.3 60.9-5.9 89.1-16.5 16-5.9 29.6-12.9 40.6-19.5v-1.1z"/>
				<path id="&lt;Path&gt;" class="s9" d="m1400 612.5c-11.1 6.7-24.8 13.7-40.9 19.8-28.1 10.5-58 16.1-88.8 16.4-38.5 0.4-78.6-7.3-119.1-22.9-46.7-18-84-36.5-116.9-52.9-46.8-23.2-83.7-41.6-125.5-47.9-10.3-1.6-20.7-2.4-31.4-2.4-35.7 0-74.2 9-120.6 27.7-89.1 36.1-135.9 49.3-172.7 48.6-37.5-0.6-64.7-16.6-105.9-40.9-10.9-6.4-20.7-12.4-29.3-17.7-28.9-17.6-48-29.3-69-33.4-20.6-4-43.6-1-82.1 10.7-18.5 5.6-33.3 11.1-46.4 15.8-47.3 17.3-66.9 24.4-130.2-8.5-41.9-21.8-80.9-8.1-106.3 7.2q-8.1 4.9-15 10.2v1.3c4.7-3.6 9.9-7.2 15.5-10.6 16-9.7 32.1-15.6 47.9-17.6 19.7-2.6 39 1 57.3 10.5 63.7 33.1 83.4 25.9 131.1 8.5 13.1-4.8 27.9-10.2 46.4-15.8 38.3-11.7 61.2-14.7 81.6-10.7 20.8 4.1 39.9 15.7 68.7 33.3 8.6 5.3 18.4 11.2 29.3 17.7 83.6 49.2 106.1 62.5 279.5-7.7 127.4-51.5 183.6-23.7 276.6 22.5 33 16.4 70.3 34.9 117 52.9 40.7 15.7 80.9 23.4 119.5 23 30.9-0.3 60.9-5.9 89.1-16.5 16-5.9 29.6-12.9 40.6-19.5v-1.1z"/>
			</g>
			<g id="&lt;Group&gt;">
				<path id="&lt;Path&gt;" class="s9" d="m0 415.2v1.2c8.8 7.1 19.5 11.7 31.4 13.1 21.1 2.6 43.5-4.8 61.4-20.5 12-10.5 36.8-29.2 69-37.7 31.5-8.3 61.1-4.3 87.9 11.8 5.6 3.4 10.8 6.6 15.8 9.6 23.4 14.4 40.3 24.8 61 27.6 21.2 2.8 46-2 85.6-16.8 88.1-32.8 121.1-22 236.5 43 98.2 55.3 169.1 24 258.8-15.6 16.2-7.2 32.9-14.6 50.7-21.8 55.9-23 91.5-29.7 127-24 35.6 5.7 70.9 24.1 124.3 52 5.9 3.1 11.9 6.2 18.2 9.5 34.9 18.1 87.1 37 137.6 23.8 15.4-4 27-10.1 34.7-15.1v-1.1c-7.6 5-19.3 11.3-35 15.4-50.2 13.1-102.2-5.7-136.9-23.7-6.3-3.3-12.4-6.5-18.2-9.5-53.5-27.9-88.9-46.4-124.6-52.1-35.7-5.7-71.4 1.1-127.5 24.1-17.7 7.3-34.5 14.7-50.7 21.8-45.7 20.2-85.2 37.7-126.2 43.5-44.9 6.4-86.7-2.5-131.7-27.8-74-41.7-114.3-61.2-156.8-61.2-24 0-48.7 6.2-80.6 18.1-39.5 14.7-64.1 19.6-85.1 16.7-20.5-2.8-37.3-13.1-60.6-27.4-5-3.1-10.2-6.3-15.8-9.6-17.9-10.7-37-16.1-57.1-16.1-10.3 0-20.8 1.4-31.6 4.2-32.4 8.5-57.4 27.4-69.4 37.9-17.7 15.4-39.7 22.8-60.6 20.2-11.9-1.5-22.7-6.2-31.5-13.5z"/>
				<path id="&lt;Path&gt;" class="s9" d="m1400 513.9c-31.6 14.2-65.3 15.1-102.7 2.8-37.2-12.2-74.6-36-110.7-59.1-15.9-10.1-32.3-20.6-48.4-29.9-81.5-47.1-116.2-27.5-208.7 25-10.1 5.7-20.5 11.6-31.8 17.9-51.7 28.8-107.9 36.9-167.1 23.9-53.1-11.6-98.8-38.4-127.9-58.8-35.3-24.8-60.3-35.6-86.1-37.2-27.3-1.6-56.9 7.1-98.9 29.1-37.5 19.7-70.4 25.9-103.6 19.7-30.7-5.8-58.8-21.2-91.3-39.1-63.4-34.8-95.5-12.6-148.5 24.2l-4.6 3.2c-19.5 13.5-37.5 19-53.7 16.4-6.4-1-11.8-3.3-16-5.8v1.1c4.2 2.4 9.5 4.6 15.8 5.6 16.4 2.7 34.8-2.9 54.5-16.5l4.6-3.2c52.7-36.6 84.5-58.7 147.4-24.2 32.6 17.9 60.8 33.4 91.6 39.2 33.5 6.3 66.6 0 104.3-19.8 41.9-22 71.3-30.6 98.4-29 25.6 1.5 50.4 12.3 85.6 37 52.7 37.1 98.8 52.5 128.2 59 59.4 13 115.8 4.9 167.8-24 11.4-6.3 21.8-12.2 31.8-17.9 92.2-52.2 126.6-71.8 207.6-25 16.2 9.3 32.6 19.8 48.4 29.9 36.2 23.1 73.6 46.9 110.9 59.2 37.5 12.3 71.4 11.4 103.1-2.7z"/>
			</g>
			<g id="&lt;Group&gt;">
				<path id="&lt;Path&gt;" class="s9" d="m0.9 216.6c22.4-4.9 45.4-4.7 64.4-2.9 114.6 11 134.9-8.8 171.6-44.8 3.7-3.6 7.6-7.4 11.8-11.4 20.3-19.2 37.7-27.9 56.4-28.1 0.3 0 0.5 0 0.8 0 26.4 0 56.2 16.7 99.6 55.6 35.7 32.1 64.7 50.6 88.5 56.8 20.6 5.3 38.3 1.7 55.8-11.4 15.7-11.8 31.3-16 52.2-14.2 19 1.7 43.4 8.6 84.2 23.8 34 12.7 62.8 12.1 90.6-2.1 25-12.7 46-34.6 69-59.9 24.1-26.5 52.4-40.8 79.6-40.1 21.8 0.6 41.1 10.6 56.1 29 19.5 24.1 36.5 42.7 55.8 55.2 23 14.9 46.1 18.4 70.8 10.9l4-1.2c51.3-15.7 88.3-27.1 189 45.1 23.7 17 47.4 28 70.6 32.7 9.6 1.9 19 2.8 28.4 2.6v-0.9c-9.3 0.2-18.7-0.7-28.2-2.6-23-4.7-46.6-15.6-70.1-32.5-61.3-43.9-99.1-57-130.9-57-20.7 0-38.8 5.6-59.1 11.8l-4 1.2c-24.3 7.4-47.2 3.9-69.9-10.8-19.2-12.4-36.1-31-55.6-55-15.1-18.7-34.8-28.8-56.9-29.4-27.5-0.7-56.1 13.6-80.4 40.4-22.9 25.2-43.9 47-68.7 59.7-27.5 14-56 14.7-89.8 2-40.8-15.3-65.3-22.2-84.5-23.9-21.1-1.9-37 2.4-52.9 14.4-17.2 12.9-34.6 16.5-54.9 11.2-23.6-6.1-52.4-24.6-88-56.6-43.6-39.1-73.6-55.9-100.3-55.9-0.3 0-0.5 0-0.8 0-19 0.2-36.6 9-57.1 28.4-4.2 3.9-8 7.7-11.8 11.4-36.6 35.8-56.7 55.5-170.8 44.5-23.9-2.3-45.6-1.3-64.5 2.8z"/>
				<path id="&lt;Path&gt;" class="s9" d="m1400 361.7c-10.2 2.4-19-1.2-35.9-11.1-10.7-6.3-25.4-14.9-47.5-24.8-26.1-11.7-41.9-22.2-54.6-30.6-24.1-16-35.2-23.4-80.8-13.4l-1.8 0.4c-68 14.9-96.1 21.1-167.3-34.5-33-25.7-66-38-98-36.5-25.8 1.2-49.9 11.7-67.7 29.5-35 35.1-80.6 43.3-128.4 23-25.4-10.7-46.7-18.3-68-20.1-21.2-1.8-42.9 1.9-70.4 12.1-8.9 3.3-16.7 6.8-24.3 10.2-39.5 17.6-65.5 29.2-144.7-30.7-42.4-32-72.5-44.2-98.2-44.2-29.8 0-53.8 16.4-84.2 37.2-2 1.4-4.1 2.8-6.2 4.2-40.2 27.4-65.9 23.2-104.9 16.8-19.4-3.2-41.4-6.8-69.8-7.3-17.8-0.3-33.2 2.8-46.5 7.7v1c13.2-5 28.7-8.1 46.5-7.8 28.4 0.5 50.3 4.1 69.7 7.2 39.2 6.4 65.1 10.7 105.7-16.9 2.1-1.4 4.2-2.8 6.2-4.2 56.3-38.5 90.2-61.8 181.1 7 79.7 60.2 106 48.5 145.8 30.8 7.6-3.4 15.4-6.9 24.2-10.1 57-21.2 87-13.4 137.6 8 48.3 20.4 94.3 12.2 129.6-23.2 17.6-17.7 41.4-28.1 67-29.2 31.8-1.5 64.5 10.8 97.3 36.3 71.6 55.8 99.8 49.6 168.2 34.7l1.8-0.4c45.2-9.9 56.1-2.6 79.9 13.2 12.7 8.4 28.5 18.9 54.7 30.7 22 9.9 36.7 18.5 47.4 24.7 16.3 9.6 24.3 14.2 36.5 11z"/>
			</g>
		</g>
	</g>
	<g id="nuvens">
		<g id="nuvens">
			<g id="nuvem-1">
				<path id="&lt;Path&gt;" class="s10" d="m342.9 625.8c-5.4 0-10.4 2.1-14.1 5.6-5.8-6.6-14.2-10.7-23.7-10.7-4.6 0-9.1 1-13 2.8-6.5-11-18.5-18.5-32.3-18.5-14.9 0-27.8 8.7-33.8 21.4-7.6 1.7-13.9 6.9-17 13.8q-1.8-0.3-3.6-0.3c-10.8 0-19.5 8.7-19.5 19.5 0 10.8 8.7 19.5 19.5 19.5 6 0 11.4-2.7 14.9-7 3.3 1.7 7 2.6 11 2.6 2.7 0 5.2-0.4 7.7-1.3 5.9 4 13.1 6.4 20.9 6.4 7.9 0 15.2-2.4 21.3-6.7 5.8 6.7 14.4 11 23.9 11 13.1 0 24.2-7.9 29-19.1 2.7 1.3 5.6 2 8.7 2 11.3 0 20.5-9.2 20.5-20.5 0.1-11.3-9.1-20.5-20.4-20.5z"/>
				<path id="&lt;Path&gt;" class="s11" d="m387.1 553.6c-8.2 0-15.7 3.2-21.2 8.4-8.8-9.9-21.6-16.2-35.9-16.2-7 0-13.7 1.5-19.7 4.2-9.8-16.7-28-28-48.7-28-22.6 0-42 13.2-51.1 32.3-11.5 2.5-21 10.4-25.7 20.9-1.8-0.3-3.6-0.5-5.5-0.5-16.3 0-29.5 13.2-29.5 29.5 0 16.3 13.2 29.5 29.5 29.5 9.1 0 17.2-4.1 22.6-10.6 5 2.5 10.6 3.9 16.5 3.9 4.1 0 8-0.7 11.6-1.9 9 6.1 19.9 9.6 31.5 9.6 12 0 23-3.7 32.2-10.1 8.8 10.2 21.8 16.6 36.3 16.6 19.7 0 36.6-11.9 43.9-28.8 4 1.9 8.5 2.9 13.2 2.9 17.2 0 31.1-13.9 31.1-31.1-0.1-16.6-14-30.6-31.1-30.6z"/>
			</g>
			<g id="nuvem-2">
				<path id="&lt;Path&gt;" class="s10" d="m1094.8 738.8c-5.6 0-10.8 2.2-14.6 5.8-6-6.8-14.8-11.1-24.6-11.1-4.8 0-9.4 1-13.5 2.9-6.7-11.5-19.2-19.2-33.4-19.2-15.5 0-28.8 9.1-35 22.2-7.9 1.7-14.4 7.1-17.6 14.3-1.2-0.2-2.5-0.4-3.8-0.4-11.2 0-20.2 9.1-20.2 20.2 0 11.1 9.1 20.2 20.2 20.2 6.2 0 11.8-2.8 15.5-7.2 3.4 1.7 7.3 2.7 11.3 2.7 2.8 0 5.4-0.5 7.9-1.3 6.2 4.2 13.6 6.6 21.6 6.6 8.2 0 15.8-2.6 22.1-6.9 6 7 14.9 11.4 24.8 11.4 13.5 0 25.1-8.2 30.1-19.8 2.7 1.3 5.8 2 9 2 11.7 0 21.3-9.5 21.3-21.3 0-11.8-9.4-21.1-21.1-21.1z"/>
				<path id="&lt;Path&gt;" class="s11" d="m1149.2 669.1c-8.2 0-15.6 3.2-21.2 8.4-8.7-9.9-21.5-16.1-35.7-16.1-7 0-13.6 1.5-19.6 4.2-9.8-16.6-27.8-27.8-48.5-27.8-22.5 0-41.9 13.2-50.9 32.3-11.4 2.5-20.8 10.3-25.5 20.8-1.8-0.3-3.6-0.5-5.5-0.5-16.2 0-29.4 13.2-29.4 29.4 0 16.2 13.2 29.4 29.4 29.4 9 0 17.1-4.1 22.5-10.4 5 2.5 10.6 3.9 16.5 3.9 4.1 0 8-0.7 11.6-1.9 8.9 6 19.7 9.5 31.3 9.5 11.9 0 22.9-3.7 32-10 8.7 10.1 21.7 16.6 36.1 16.6 19.6 0 36.5-11.9 43.8-28.8 4 1.9 8.4 2.9 13.1 2.9 17.1 0 30.9-13.8 30.9-30.9 0-17.1-13.8-31-30.9-31z"/>
			</g>
		</g>
	</g>
</svg>